HIERARCHY
ROOT Pelvis
{
	OFFSET 0.009387 0.966437 0.013201
	CHANNELS 6 Xposition Yposition Zposition Zrotation Yrotation Xrotation 
	JOINT L_Hip
	{
		OFFSET 0.054808 -0.085106 -0.008426
		CHANNELS 3 Zrotation Yrotation Xrotation
		JOINT L_Knee
		{
			OFFSET 0.041533 -0.391135 0.011104
			CHANNELS 3 Zrotation Yrotation Xrotation
			JOINT L_Ankle
			{
				OFFSET -0.041555 -0.425024 -0.064175
				CHANNELS 3 Zrotation Yrotation Xrotation
				End Site #name: L_Foot
				{
					OFFSET 0.055957 -0.054958 0.116754
				}
			}
		}
	}
	JOINT R_Hip
	{
		OFFSET -0.061474 -0.089692 -0.010855
		CHANNELS 3 Zrotation Yrotation Xrotation
		JOINT R_Knee
		{
			OFFSET -0.044890 -0.388133 -0.012717
			CHANNELS 3 Zrotation Yrotation Xrotation
			JOINT R_Ankle
			{
				OFFSET 0.029429 -0.421130 -0.050530
				CHANNELS 3 Zrotation Yrotation Xrotation
				End Site #name: R_Foot
				{
					OFFSET -0.081404 -0.043500 0.120129
				}
			}
		}
	}
	JOINT Spine1
	{
		OFFSET -0.003814 0.124981 -0.041301
		CHANNELS 3 Zrotation Yrotation Xrotation
		JOINT Spine2
		{
			OFFSET -0.000242 0.141836 0.022442
			CHANNELS 3 Zrotation Yrotation Xrotation
			JOINT Spine3
			{
				OFFSET 0.002328 0.056189 0.009584
				CHANNELS 3 Zrotation Yrotation Xrotation
				JOINT Neck
				{
					OFFSET 0.014344 0.217725 -0.014591
					CHANNELS 3 Zrotation Yrotation Xrotation
					End Site #name: Head
					{
						OFFSET -0.005523 0.079232 0.064374
					}
				}
				JOINT L_Collar
				{
					OFFSET 0.079809 0.110220 -0.017311
					CHANNELS 3 Zrotation Yrotation Xrotation
					JOINT L_Shoulder
					{
						OFFSET 0.129840 -0.008734 -0.007534
						CHANNELS 3 Zrotation Yrotation Xrotation
						JOINT L_Elbow
						{
							OFFSET 0.013911 -0.253873 -0.043977
							CHANNELS 3 Zrotation Yrotation Xrotation
							End Site #name: L_Wrist
							{
								OFFSET 0.054096 -0.239111 0.101971
							}
						}
					}
				}
				JOINT R_Collar
				{
					OFFSET -0.073303 0.121169 -0.007940
					CHANNELS 3 Zrotation Yrotation Xrotation
					JOINT R_Shoulder
					{
						OFFSET -0.121591 -0.009662 -0.011365
						CHANNELS 3 Zrotation Yrotation Xrotation
						JOINT R_Elbow
						{
							OFFSET -0.010243 -0.259733 -0.042586
							CHANNELS 3 Zrotation Yrotation Xrotation
							End Site #name: R_Wrist
							{
								OFFSET -0.057088 -0.235344 0.118136
							}
						}
					}
				}
			}
		}
	}
}
MOTION
Frames: 15
Frame Time: 0.041667
0.009387 0.966437 0.013201 -0.000091 0.000087 0.003828 0.000437 -0.001749 -0.016587 -0.001076 -0.001556 0.017581 0.007283 0.005632 -0.009666 0.000000 0.000000 0.000000 0.000000 0.000000 0.000000 -0.008994 0.002960 -0.014854 0.000612 -0.000136 -0.023190 -0.000371 -0.000396 0.011089 0.000488 -0.003555 0.005624 -0.006568 0.005905 0.008149 -0.001477 0.012325 0.000743 0.012979 -0.001781 0.008539 -0.008978 -0.004939 -0.004907 0.000000 0.000000 0.000000 -0.010083 0.000877 0.019724 0.005624 0.005841 -0.012438 
0.010131 0.965010 0.010657 0.047840 0.153111 0.053865 -0.145829 -0.012339 -0.076280 -0.244480 0.050432 -0.141556 0.222863 0.453542 -0.018871 0.396086 -0.067148 0.454480 -0.211162 -0.048330 -1.027698 -1.342656 -2.694133 -0.531741 0.215109 -0.033912 -0.558678 -0.761420 0.148123 -0.528926 0.413063 0.090757 0.953549 -0.207671 0.241663 0.995465 0.379030 -1.015189 -0.049695 -0.573531 0.038789 -1.011905 -0.503034 0.058811 1.186018 -0.447903 -0.501086 0.083634 1.264322 -0.183533 -0.470151 -0.811759 -0.389446 -0.074288 
0.009223 0.963946 0.009320 0.203520 0.273451 0.123561 -0.261553 -0.013191 -0.053125 -0.330325 0.098541 -0.513853 0.488427 0.916454 -0.117552 0.432002 -0.099063 0.710428 -0.213489 -0.091757 -1.637923 -2.051296 -4.749796 -0.433434 0.134877 -0.021995 -1.317047 -1.369332 0.220524 0.444032 0.858135 0.173736 0.705420 -0.088182 0.255595 2.543971 0.753342 -2.256108 -0.123105 -1.042911 0.106034 -1.165841 -0.388728 -0.002405 0.711431 -0.698613 -0.568387 0.113933 1.510337 -0.196232 -0.973866 -0.375690 -0.164298 -0.101253 
0.007457 0.963697 0.010045 0.135226 0.253475 -0.053226 -0.237149 0.002510 0.085368 -0.008361 0.053732 -0.537444 0.616072 0.958466 -0.346806 0.530784 -0.140234 1.020241 -0.111127 -0.120255 -1.888577 -2.172475 -4.928075 -0.515774 0.329106 -0.050524 -1.249969 -2.183515 0.366299 0.270290 1.400593 0.197645 0.896246 0.075904 0.212372 3.882902 0.903281 -2.624391 -0.145122 -1.224327 0.120969 -1.388763 -0.243050 0.119393 0.978362 -0.346267 -0.622012 0.083650 1.134683 -0.139527 -0.940152 -0.103791 -0.099355 0.195983 
0.007177 0.963513 0.010123 0.161135 0.334354 -0.129021 -0.128559 -0.007506 -0.035932 -0.091075 0.051972 -0.394440 0.668159 1.072157 -0.343511 0.495780 -0.120160 0.865323 -0.212371 -0.082019 -1.500171 -2.261660 -4.926421 -0.655022 0.389385 -0.059493 -1.191308 -2.458369 0.407106 0.615466 1.478866 0.201513 0.702856 -0.242983 0.512600 4.173783 0.923601 -3.060359 -0.177372 -1.409536 0.153815 -1.343612 0.050445 0.058455 0.163792 -0.216502 -0.425602 0.054849 1.023429 -0.123091 -0.921965 -0.093366 -0.098147 0.212572 
0.008454 0.963511 0.009903 0.307680 0.326525 -0.213005 -0.143368 -0.028522 -0.227543 -0.123841 0.022063 -0.034825 0.660933 1.324950 -0.072217 0.265337 -0.095055 0.731655 -0.285332 -0.059915 -1.301892 -2.227236 -5.152145 -0.467871 0.146174 -0.023572 -1.122928 -2.494981 0.419064 0.325531 1.539481 0.161007 1.152013 -0.408388 0.666946 4.292513 0.937058 -3.275561 -0.193255 -1.650243 0.183790 -1.471497 0.094350 -0.034468 -0.331251 -0.220578 -0.425062 0.055201 1.356258 -0.168500 -1.047450 -0.247289 -0.187854 0.266372 
0.008738 0.962945 0.010261 0.341528 0.330361 -0.322489 -0.127822 -0.031596 -0.260594 -0.058010 -0.012368 0.217182 0.671768 1.238932 -0.182720 0.273540 -0.087975 0.668994 -0.390276 -0.023857 -0.964724 -2.297413 -5.068833 -0.626288 -0.056435 0.006727 -0.998572 -2.335587 0.388993 0.445377 1.566257 0.147164 1.190684 -0.598882 0.842053 4.387872 0.796649 -3.198492 -0.191637 -1.682584 0.174883 -1.673788 0.022747 -0.115654 -0.553541 -0.190153 -0.330390 0.044569 1.342539 -0.165927 -1.056200 -0.234402 -0.154991 0.155954 
0.010848 0.963174 0.010816 0.287697 0.294112 -0.467247 -0.090473 -0.033250 -0.286760 0.067038 -0.057562 0.481918 0.676672 1.055169 -0.378781 0.338898 -0.092277 0.683921 -0.441620 -0.013760 -0.905361 -2.323143 -5.018330 -0.696138 -0.017486 0.001303 -0.787799 -2.271765 0.375317 0.566422 1.426489 0.116703 1.217451 -0.569072 0.832448 4.587058 0.720701 -3.310075 -0.202162 -1.729015 0.172169 -1.817581 -0.055865 -0.197174 -0.762015 0.216120 -0.307675 0.003666 1.062789 -0.114632 -1.220769 -0.163673 -0.189809 0.448230 
0.010803 0.963022 0.009668 0.288513 0.301977 -0.533381 -0.071627 -0.049091 -0.440490 0.114035 -0.091359 0.749657 0.702974 0.918292 -0.572239 0.238971 -0.089518 0.693443 -0.377988 -0.020564 -0.900956 -2.349075 -4.898671 -0.807026 -0.042080 0.005231 -0.686803 -2.301774 0.374983 0.835777 1.426930 0.118519 1.090912 -0.495011 0.783004 4.779703 0.672934 -3.409510 -0.210856 -1.684073 0.163631 -1.838761 -0.028704 -0.290691 -1.223473 0.398908 -0.344691 -0.011089 0.898672 -0.087618 -1.260509 -0.161883 -0.205286 0.516503 
0.012822 0.963180 0.008998 0.325200 0.275781 -0.582643 -0.070653 -0.068630 -0.623663 0.072653 -0.116725 1.072905 0.757893 1.029943 -0.577554 0.133168 -0.088307 0.718313 -0.372800 -0.030210 -1.025029 -2.213578 -4.823168 -0.641375 -0.065683 0.009089 -0.569319 -2.479700 0.406424 0.846490 1.591344 0.106003 1.138140 -0.549059 0.840147 4.891283 0.627311 -3.505835 -0.219182 -1.622874 0.147422 -1.934362 -0.310822 -0.394722 -1.136719 0.416568 -0.329065 -0.013977 0.937687 -0.095833 -1.213229 -0.095556 -0.161363 0.470594 
0.013420 0.962941 0.009436 0.319916 0.257629 -0.582121 -0.027683 -0.084655 -0.787855 0.027131 -0.126277 1.244448 0.808817 1.221247 -0.493927 0.076397 -0.081177 0.676135 -0.376115 -0.030117 -1.028792 -2.188556 -4.982406 -0.508558 -0.076117 0.010578 -0.614840 -2.451545 0.397698 1.037503 1.649002 0.096973 1.037216 -0.611662 0.888098 4.801713 0.512440 -3.491172 -0.221267 -1.518273 0.120698 -2.087032 -0.464775 -0.456876 -1.113155 0.405149 -0.323082 -0.013331 0.886860 -0.089896 -1.174080 -0.050992 -0.130959 0.436240 
0.014674 0.962849 0.009099 0.302382 0.205719 -0.613228 -0.005031 -0.098429 -0.924991 0.033025 -0.151390 1.489857 0.820836 1.258509 -0.482040 0.069423 -0.075154 0.626683 -0.357481 -0.033111 -1.041515 -2.135645 -5.097641 -0.358155 -0.001263 -0.000784 -0.574268 -2.432151 0.394942 1.000356 1.577505 0.068014 1.094158 -0.557246 0.828911 4.669810 0.568354 -3.506559 -0.220847 -1.551367 0.114621 -2.250815 -0.577427 -0.480630 -1.003282 0.433630 -0.453832 -0.006182 0.777729 -0.073753 -1.160852 0.199170 0.017903 0.335862 
0.015156 0.962693 0.009528 0.272662 0.181388 -0.602505 -0.018762 -0.116215 -1.087422 0.091948 -0.184765 1.729003 0.835960 1.152988 -0.620893 0.025729 -0.066455 0.566088 -0.266955 -0.042113 -1.027283 -2.206201 -5.130647 -0.447997 0.039152 -0.006998 -0.593828 -2.418934 0.389858 1.137741 1.601394 0.057962 1.004684 -0.507642 0.791356 4.745540 0.619890 -3.587388 -0.225340 -1.555192 0.116451 -2.232635 -0.397471 -0.463271 -1.267745 0.422138 -0.530003 0.000705 0.707295 -0.067164 -1.068117 0.291726 0.155577 -0.036791 
0.017516 0.962571 0.010304 0.284958 0.162267 -0.624823 -0.054192 -0.129753 -1.201646 0.118193 -0.215882 1.998187 0.882449 1.173315 -0.700070 0.010758 -0.064389 0.553127 -0.327085 -0.035488 -1.027882 -2.146468 -5.062230 -0.395976 0.027856 -0.005236 -0.570004 -2.469682 0.399799 1.097498 1.736406 0.031533 1.050105 -0.539357 0.819737 4.749527 0.641828 -3.640251 -0.228626 -1.560138 0.113523 -2.286511 -0.530066 -0.505406 -1.197966 0.276577 -0.550864 0.016582 0.811847 -0.088026 -0.967006 0.456366 0.326587 -0.391916 
0.016937 0.962349 0.010914 0.289885 0.155380 -0.641082 -0.042353 -0.131904 -1.226142 0.131351 -0.225930 2.076801 0.897565 1.165482 -0.740368 -0.011177 -0.056146 0.488963 -0.354804 -0.017979 -0.829873 -2.190527 -4.991464 -0.506251 -0.059772 0.008088 -0.612237 -2.395375 0.383491 1.243469 1.856689 0.031757 0.950256 -0.562920 0.826831 4.584769 0.578526 -3.524812 -0.221895 -1.441367 0.094996 -2.291906 -0.623506 -0.568171 -1.289879 0.174051 -0.602396 0.030666 0.809818 -0.091679 -0.881834 0.609065 0.477790 -0.685814 
